<?xml version="1.0" encoding="utf-8"?>
<svg version="1.1" xmlns="http://www.w3.org/2000/svg" xmlns:xlink="http://www.w3.org/1999/xlink" x="0px" y="0px"
	 viewBox="0 0 600 600" enable-background="new 0 0 600 600" xml:space="preserve">

<symbol viewBox="0 0 600 600" id="sky">
	<path d="M284.925,94.183c35.155-15.675,39.075,4.459,36.456,31.889c-1.326,13.88-20.634,31.174-1.958,40.611
		c23.603,11.927,18.523-15.9,26.035-26.36c14.365-20.005,28.446-11.193,32.576,5.159c4.872,19.293,6.446,22.67,28.845,17.258
		c30.359-7.335,39.232,14.302,30.322,42.349c-3.182,1.615-4.003,4.032-2.46,7.251c-35.938,88.988-60.415,181.639-86.887,273.629
		c-2.944,10.233-13.992,25.493,3.883,31.344c18.084,5.919,18.398-13.059,21.524-23.09c27.556-88.435,61.498-174.898,82.454-265.374
		c2.211-8.248,4.423-16.496,6.635-24.744c23.403-24.338,38.319-21.06,43.65,13.416c-31.244,94.891-62.49,189.779-93.736,284.667
		c-4.493,9.703-9.523,19.199-13.344,29.159c-4.842,12.615-5.974,29.102-25.139,27.047c-22.506-2.412-15.567-17.403-11.967-30.996
		c1.78-6.722-2.244-11.897-8.613-13.613c-6.38-1.719-11.931,0.728-14.149,7.562c-15.857,48.843-42.293,21.186-66.564,9.272
		c23.516-67.03,47.241-133.986,70.322-201.164c3.5-10.185,16.194-24.407-1.33-31.051c-13.979-5.3-16.204,11.529-19.269,20.507
		c-22.951,67.227-53.257,132.049-66.88,202.35c-21.314,13.825-35.791,7.671-44.531-15.241
		c49.266-99.373,73.353-207.757,111.369-311.156c9.401-13.914,14.114-25.845-10.695-25.294
		c-19.82,56.815-40.254,113.427-59.28,170.507c-17.074,51.221-44.343,98.974-52.201,153.316c-2.014,2.353-3.925,4.805-6.058,7.045
		c-9.995,10.503-27.907,4.374-28.716-0.336c-8.954-52.227-79.525-2.036-87.219-53.516c17.166-29.244,29.137-60.511,36.431-93.597
		c34.565-93.632,69.303-187.202,103.532-280.956c6.026-16.503,4.495-42.56,31.175-35.372c21.749,5.859,20.793,27.047,14.444,46.083
		l-0.248,2.757c-46.133,111.23-81.369,226.343-120.816,339.95c-3.034,8.738-13.158,21.261,3.184,26.655
		c15.188,5.015,16.686-9.895,20.302-19.11c42.816-109.129,83.019-219.187,116.53-331.59
		C285.958,99.867,286.755,97.46,284.925,94.183z"/>
</symbol>
<symbol viewBox="0 0 600 600" id="sea">
	<path display="inline" d="M48,423.132c74.325-113.977,181.24-154.563,313.644-143.121c43.863,3.79,86.738-10.302,126.471-29.068
		c20.523-9.693,35.68-8.983,50.368,8.202c11.057,12.936,38.098,19.975,35.317,33.845c-3.594,17.927-30.31,14.193-47.084,18.575
		c-40.57,10.598-82.55,12.905-124.094,10.806c-122.06-6.167-233.592,21.668-331.848,96.478c-5.591,4.257-12.262,7.094-18.431,10.593
		C50.897,427.338,49.448,425.236,48,423.132z"/>
	<path display="inline" d="M151.869,275.408c19.911-50.683,52.591-72.87,98.585-77.042c50.939-4.621,102.927-0.221,150.486-27.802
		c18.981-11.007,30.896,13.63,45.729,22.231c8.083,4.687,22.911,7.566,21.392,18.532c-1.648,11.898-16.69,12.45-26.765,15.795
		c-22.22,7.378-45.35,11.308-68.66,11.388C298.745,238.766,225.428,242.294,151.869,275.408z"/>
	<path display="inline" d="M224.737,159.666c34.813-64.953,70.389-76.07,126.606-43.084c5.889,3.455,14.65,5.539,14.509,13.672
		c-0.142,8.241-8.942,10.139-15.14,12.984C311.603,161.196,269.389,153.718,224.737,159.666z"/>
</symbol>
<symbol viewBox="0 0 600 600" id="XL_Recordings">
	<path d="M29.131,434.979h26.596c4.378,0,7.992,0.648,10.835,1.949c5.397,2.495,8.096,7.105,8.096,13.822
		c0,3.506-0.724,6.374-2.173,8.603c-1.447,2.232-3.472,4.02-6.074,5.377c2.285,0.931,4.003,2.149,5.158,3.664
		c1.155,1.513,1.798,3.971,1.93,7.37l0.278,7.845c0.08,2.229,0.266,3.891,0.558,4.978c0.48,1.861,1.328,3.055,2.549,3.586v1.313
		h-9.719c-0.266-0.502-0.478-1.155-0.638-1.949c-0.158-0.799-0.292-2.339-0.4-4.619l-0.478-9.763c-0.18-3.82-1.562-6.381-4.14-7.687
		c-1.472-0.714-3.779-1.072-6.929-1.072h-17.53v25.093h-7.918V434.979z M54.874,461.783c3.616,0,6.476-0.743,8.579-2.232
		c2.105-1.486,3.158-4.166,3.158-8.045c0-4.169-1.472-7.01-4.415-8.525c-1.576-0.794-3.679-1.191-6.313-1.191H37.057v19.993H54.874z
		"/>
	<path d="M87.842,434.979h42.46v7.168H95.568v17.759h32.103v6.773H95.568v19.835h35.328v6.971H87.842V434.979z"/>
	<path d="M182.876,439.238c4.045,3.903,6.286,8.338,6.734,13.303h-7.726c-0.862-3.769-2.575-6.756-5.143-8.959
		c-2.568-2.207-6.176-3.306-10.815-3.306c-5.66,0-10.231,2.025-13.71,6.077c-3.479,4.054-5.221,10.267-5.221,18.636
		c0,6.854,1.571,12.419,4.715,16.685s7.831,6.398,14.066,6.398c5.74,0,10.109-2.242,13.108-6.732c1.591-2.366,2.778-5.47,3.56-9.324
		h7.726c-0.682,6.164-2.941,11.327-6.773,15.496c-4.593,5.019-10.786,7.531-18.583,7.531c-6.72,0-12.363-2.059-16.931-6.181
		c-6.011-5.445-9.017-13.856-9.017-25.227c0-8.635,2.259-15.718,6.771-21.243c4.88-6.008,11.615-9.005,20.196-9.005
		C173.154,433.386,178.836,435.338,182.876,439.238z"/>
	<path d="M248.599,443.341c3.879,5.177,5.816,11.802,5.816,19.874c0,8.737-2.217,16.003-6.651,21.789
		c-5.204,6.798-12.626,10.199-22.264,10.199c-9.003,0-16.078-2.977-21.229-8.922c-4.593-5.735-6.893-12.989-6.893-21.75
		c0-7.911,1.966-14.682,5.896-20.313c5.046-7.222,12.506-10.832,22.384-10.832C235.985,433.386,243.633,436.704,248.599,443.341z
		 M241.609,480.636c3.121-5.007,4.68-10.767,4.68-17.282c0-6.881-1.798-12.423-5.397-16.619c-3.599-4.2-8.515-6.301-14.755-6.301
		c-6.055,0-10.993,2.081-14.818,6.24c-3.823,4.161-5.735,10.294-5.735,18.398c0,6.486,1.64,11.953,4.919,16.405
		c3.279,4.451,8.598,6.676,15.951,6.676C233.437,488.152,238.487,485.648,241.609,480.636z"/>
	<path d="M264.811,434.979h26.596c4.381,0,7.992,0.648,10.832,1.949c5.399,2.495,8.094,7.105,8.094,13.822
		c0,3.506-0.724,6.374-2.168,8.603c-1.447,2.232-3.472,4.02-6.074,5.377c2.285,0.931,4.003,2.149,5.16,3.664
		c1.152,1.513,1.796,3.971,1.93,7.37l0.28,7.845c0.076,2.229,0.263,3.891,0.556,4.978c0.475,1.861,1.328,3.055,2.549,3.586v1.313
		h-9.717c-0.266-0.502-0.478-1.155-0.638-1.949c-0.158-0.799-0.29-2.339-0.397-4.619l-0.478-9.763
		c-0.183-3.82-1.562-6.381-4.142-7.687c-1.472-0.714-3.781-1.072-6.929-1.072h-17.53v25.093h-7.926v-58.511H264.811z
		 M290.554,461.783c3.616,0,6.474-0.743,8.581-2.232c2.105-1.486,3.158-4.166,3.158-8.045c0-4.169-1.474-7.01-4.417-8.525
		c-1.576-0.794-3.679-1.191-6.313-1.191h-18.826v19.993H290.554z"/>
	<path d="M323.122,434.979h23.39c7.938,0,14.097,2.851,18.473,8.562c3.906,5.151,5.855,11.749,5.855,19.796
		c0,6.215-1.155,11.829-3.457,16.848c-4.064,8.869-11.047,13.303-20.953,13.303h-23.307V434.979z M344.958,486.717
		c2.619,0,4.775-0.275,6.464-0.838c3.004-1.033,5.475-3.026,7.395-5.972c1.537-2.361,2.636-5.389,3.311-9.081
		c0.392-2.205,0.585-4.249,0.585-6.14c0-7.246-1.411-12.877-4.222-16.889c-2.821-4.006-7.361-6.011-13.617-6.011h-13.744v44.926
		h13.829V486.717z"/>
	<path d="M383.466,434.979h8.009v58.509h-8.009V434.979z"/>
	<path d="M404.336,434.979h9.336l29.181,47.27v-47.27h7.565v58.509h-8.9l-29.61-47.218v47.218h-7.57v-58.509H404.336z"/>
	<path d="M502.199,436.651c5.733,3.053,9.239,8.403,10.518,16.051h-7.848c-0.933-4.274-2.875-7.387-5.811-9.341
		c-2.938-1.952-6.644-2.926-11.115-2.926c-5.307,0-9.775,2.034-13.398,6.094c-3.625,4.066-5.441,10.119-5.441,18.161
		c0,6.958,1.496,12.621,4.488,16.992c2.994,4.369,7.87,6.552,14.641,6.552c5.175,0,9.466-1.535,12.862-4.602
		c3.396-3.067,5.131-8.026,5.212-14.874h-18.324v-6.571h25.695v31.306h-5.1l-1.91-7.526c-2.644,2.943-4.98,4.995-7.017,6.133
		c-3.421,1.964-7.772,2.951-13.045,2.951c-6.822,0-12.682-2.244-17.594-6.734c-5.355-5.631-8.033-13.357-8.033-23.183
		c0-9.797,2.614-17.591,7.853-23.383c4.97-5.523,11.412-8.284,19.316-8.284C493.561,433.462,498.247,434.526,502.199,436.651z"/>
	<path d="M531.879,474.611c0.178,3.318,0.931,6.011,2.263,8.082c2.529,3.881,6.995,5.818,13.388,5.818
		c2.865,0,5.475-0.424,7.826-1.274c4.554-1.647,6.832-4.593,6.832-8.844c0-3.187-0.965-5.455-2.892-6.81
		c-1.954-1.328-5.017-2.48-9.188-3.465l-7.675-1.793c-5.017-1.167-8.564-2.454-10.65-3.864c-3.604-2.441-5.404-6.094-5.404-10.952
		c0-5.258,1.774-9.573,5.314-12.945c3.538-3.37,8.554-5.056,15.038-5.056c5.967,0,11.042,1.479,15.213,4.439
		c4.176,2.96,6.262,7.694,6.262,14.2h-7.451c-0.383-3.133-1.196-5.536-2.444-7.212c-2.317-3.05-6.252-4.578-11.8-4.578
		c-4.481,0-7.699,0.979-9.665,2.946c-1.964,1.969-2.941,4.249-2.941,6.851c0,2.87,1.16,4.965,3.477,6.296
		c1.515,0.85,4.953,1.91,10.304,3.187l7.953,1.871c3.833,0.906,6.793,2.139,8.876,3.706c3.601,2.736,5.402,6.708,5.402,11.909
		c0,6.481-2.298,11.115-6.895,13.902c-4.598,2.79-9.936,4.186-16.017,4.186c-7.097,0-12.655-1.861-16.668-5.577
		c-4.015-3.691-5.986-8.696-5.906-15.016h7.448V474.611z"/>
	<path d="M29.131,103.245v301.459H570V103.245H29.131z M321.724,355.222l-85.665,0.246l-38.74-56.608l-37.602,56.608H72.816
		l82.028-107.554l-74.402-98.523h86.64l33.867,52.14l32.673-52.176h88.199l-79.185,98.639L321.724,355.222z M348.33,355.149
		l-0.487-205.794h82.32v145.687h90.448l0.219,60.426L348.33,355.149z"/>
</symbol>
<symbol id="Google_Play_Music" viewBox="0 0 600 600">
	<path d="M497.591,303.783c0-13.721-1.113-27.517-3.486-41.016H303.712v77.73h109.029c-4.524,25.069-19.062,47.246-40.348,61.338
		v0.048c-18.087,12.281-41.423,19.236-68.607,19.236c-52.66,0-97.31-35.527-113.331-83.292h-0.074
		c-8.455-25.069-8.455-52.215,0-77.285c15.946-47.839,60.671-83.367,113.331-83.367c28.778-0.445,56.591,10.384,77.433,30.261
		l57.63-57.63c-36.491-34.266-84.924-53.105-135.063-52.512c-76.32,0-146.114,43.018-180.38,111.254
		c-28.629,57.036-28.629,124.234,0,181.27C157.598,457.982,227.391,501,303.712,501c54.44,0,100.351-17.875,133.802-48.729
		l-0.041-0.032C475.649,417.083,497.591,365.177,497.591,303.783z"/>
</symbol>
<symbol id="Apple_Music" viewBox="0 0 600 600">
	<path d="M359.49,100.705c-16.123,18.426-41.459,34.549-66.795,32.246c-4.607-27.639,9.213-55.279,23.033-71.402
			C331.85,40.82,359.49,27,382.523,27C384.826,52.336,375.613,79.976,359.49,100.705L359.49,100.705z"/>
	<path d="M382.523,137.558c13.82,0,55.279,4.607,82.918,46.066c-2.303,2.303-48.369,29.943-48.369,87.525
		c0,69.099,59.885,92.131,59.885,92.131c0,2.303-9.213,32.246-29.943,64.492c-18.426,27.639-39.156,55.279-69.099,55.279
		c-29.943,0-39.156-18.426-73.705-18.426s-46.066,18.426-73.705,18.426c-29.943,0-52.976-29.943-71.402-57.582
		c-39.156-57.582-69.099-161.23-27.639-230.328c18.426-34.549,55.279-57.582,92.131-57.582c29.943,0,57.582,20.73,73.705,20.73
		C313.424,158.287,345.67,135.254,382.523,137.558L382.523,137.558z"/>
</symbol>
<symbol id="Spotify" viewBox="0 0 600 600" >
	<path d="M300.16,71.18c-126.381,0-228.838,102.456-228.838,228.84c0,126.389,102.457,228.838,228.838,228.838
		C426.554,528.857,529,426.409,529,300.02C529,173.644,426.554,71.19,300.157,71.19C300.157,71.19,300.16,71.18,300.16,71.18z
		 M405.103,401.233c-4.099,6.722-12.898,8.854-19.62,4.728c-53.729-32.82-121.366-40.252-201.022-22.053
		c-7.676,1.749-15.327-3.061-17.076-10.739c-1.757-7.679,3.033-15.33,10.728-17.079c87.17-19.916,161.943-11.341,222.263,25.523
		C407.098,385.739,409.229,394.511,405.103,401.233z M433.112,338.922c-5.165,8.395-16.15,11.046-24.539,5.881
		c-61.511-37.809-155.276-48.759-228.031-26.674c-9.436,2.85-19.402-2.468-22.265-11.887c-2.842-9.436,2.478-19.383,11.898-22.252
		c83.107-25.217,186.425-13.002,257.063,30.407c8.389,5.165,11.04,16.15,5.875,24.529V338.922z M435.517,274.038
		c-73.753-43.808-195.437-47.836-265.854-26.463c-11.308,3.43-23.266-2.954-26.692-14.262c-3.427-11.313,2.951-23.263,14.267-26.701
		c80.834-24.54,215.21-19.798,300.123,30.612c10.193,6.036,13.526,19.173,7.487,29.33c-6.012,10.171-19.183,13.524-29.321,7.485
		H435.517z"/>
</symbol>
<symbol id="Amazon_Music" viewBox="0 0 600 600">
	<path id="XMLID_3_" d="M518.123,532.605c-59.173,43.679-144.843,66.869-218.667,66.869c-103.493,0-196.623-38.178-267.071-101.908
			c-5.502-4.962-0.642-11.814,6.008-7.898c76.05,44.321,170.16,70.885,267.308,70.885c65.518,0,137.551-13.602,203.914-41.789
			c9.924-4.219,18.363,6.651,8.54,13.806L518.123,532.605z"/>
	<path id="XMLID_4_" d="M542.697,504.554c-7.595-9.687-49.992-4.624-69.096-2.329c-5.807,0.642-6.65-4.32-1.485-8.034
		c33.856-23.73,89.35-16.878,95.796-8.979c6.548,8.034-1.687,63.595-33.451,90.194c-4.86,4.118-9.484,1.89-7.392-3.477
		c7.291-17.824,23.224-57.689,15.628-67.409V504.554z"/>
	<path id="XMLID_7_" d="M403.017,465.331l0.102,0.101c13.062-11.511,36.591-32.068,49.889-43.139
		c5.267-4.22,4.321-11.273,0.204-17.181c-11.916-16.472-24.574-29.84-24.574-60.22V243.626c0-42.937,2.97-82.295-28.592-111.831
		c-24.911-23.83-66.26-32.269-97.89-32.269c-61.805,0-130.801,23.089-145.249,99.476c-1.586,8.136,4.422,12.455,9.688,13.604
		l62.987,6.851c5.907-0.303,10.126-6.109,11.274-12.016c5.367-26.261,27.444-39.021,52.219-39.021
		c13.4,0,28.591,4.861,36.49,16.877c9.079,13.401,7.898,31.663,7.898,47.156v8.439c-37.671,4.22-86.919,6.954-122.16,22.481
		c-40.709,17.621-69.299,53.468-69.299,106.228c0,67.51,42.497,101.265,97.249,101.265c46.21,0,71.425-10.87,107.071-47.359
		c11.815,17.081,15.628,25.417,37.233,43.342c4.961,2.632,11.072,2.43,15.392-1.485L403.017,465.331z M337.532,306.884
		c0,25.316,0.641,46.413-12.118,68.894c-10.329,18.363-26.7,29.536-44.928,29.536c-24.877,0-39.46-19.004-39.46-47.055
		c0-55.392,49.688-65.418,96.642-65.418v14.043H337.532z"/>
</symbol>
</svg>
